<?xml version="1.0" encoding="UTF-8" standalone="no"?>
<!-- Created with Inkscape (http://www.inkscape.org/) -->

<svg
   xmlns:svg="http://www.w3.org/2000/svg"
   xmlns="http://www.w3.org/2000/svg"
   version="1.1"
   width="300"
   height="200"
   id="svg3365">
  <defs
     id="defs3367" />
  <g
     transform="translate(0,-852.36218)"
     id="layer1">
    <g
       transform="matrix(2.8985755,0,0,2.8985755,-590.79137,306.31437)"
       id="g439">
      <path
         d="m 276.459,222.774 c -2.979,0 -5.257,-0.521 -6.773,-1.549 -1.613,-1.113 -2.43,-2.689 -2.43,-4.686 v -7.109 c 0,-2.146 0.401,-3.857 1.192,-5.086 0.79,-1.225 1.746,-2.123 2.843,-2.671 1.122,-0.589 2.336,-0.957 3.604,-1.093 1.235,-0.131 2.34,-0.197 3.282,-0.197 1.947,0 3.677,0.536 5.142,1.595 1.502,1.085 2.265,2.883 2.265,5.343 0,2.304 -0.695,3.982 -2.067,4.989 -1.318,0.97 -3.016,1.623 -5.046,1.943 -0.291,0.005 -0.58,0.042 -0.917,0.114 -0.375,0.08 -0.804,0.146 -1.287,0.201 -1.412,0.192 -3.104,0.638 -3.104,1.658 0,0.615 0.29,0.975 0.94,1.163 0.77,0.224 1.484,0.337 2.122,0.337 0.682,0 1.296,-0.098 1.825,-0.29 0.479,-0.175 0.818,-0.493 1.037,-0.975 l 0.1,-0.22 h 5.902 l -0.054,0.423 c -0.22,1.703 -1,3.125 -2.319,4.225 -1.468,1.251 -3.574,1.885 -6.257,1.885 z m 0.937,-17.421 c -1.368,0 -2.405,0.373 -3.172,1.141 -0.756,0.756 -1.14,1.823 -1.14,3.172 v 1.372 c 0.687,-0.283 1.553,-0.552 2.584,-0.799 l 1.805,-0.393 c 0.85,-0.237 1.478,-0.547 1.846,-0.915 0.273,-0.444 0.437,-0.955 0.437,-1.453 0,-0.684 -0.194,-1.211 -0.593,-1.609 -0.38,-0.338 -0.979,-0.516 -1.767,-0.516 z"
         id="path441"
         style="fill:#004f9f" />
      <path
         d="m 278.178,200.759 c 1.875,0 3.516,0.508 4.922,1.523 1.406,1.015 2.109,2.695 2.109,5.039 0,2.188 -0.638,3.75 -1.914,4.688 -1.275,0.938 -2.903,1.562 -4.883,1.875 -0.26,0 -0.572,0.039 -0.938,0.117 -0.364,0.078 -0.781,0.143 -1.25,0.195 -2.291,0.312 -3.438,0.989 -3.438,2.031 0,0.781 0.404,1.289 1.211,1.523 0.808,0.234 1.55,0.352 2.227,0.352 0.729,0 1.381,-0.104 1.953,-0.312 0.573,-0.209 0.99,-0.6 1.25,-1.172 h 5.234 c -0.208,1.614 -0.938,2.942 -2.188,3.984 -1.406,1.197 -3.411,1.797 -6.016,1.797 -2.916,0 -5.104,-0.495 -6.562,-1.484 -1.51,-1.042 -2.266,-2.5 -2.266,-4.375 v -7.109 c 0,-2.084 0.378,-3.711 1.133,-4.883 0.756,-1.172 1.654,-2.019 2.695,-2.539 1.094,-0.573 2.253,-0.924 3.477,-1.055 1.226,-0.13 2.306,-0.195 3.244,-0.195 m -5.469,10.859 c 0.729,-0.365 1.745,-0.703 3.047,-1.016 l 1.797,-0.391 c 0.938,-0.261 1.615,-0.6 2.031,-1.016 0.365,-0.573 0.547,-1.146 0.547,-1.719 0,-0.781 -0.234,-1.406 -0.703,-1.875 -0.469,-0.417 -1.146,-0.625 -2.031,-0.625 -1.458,0 -2.604,0.416 -3.438,1.25 -0.833,0.833 -1.25,1.979 -1.25,3.438 v 1.954 m 5.469,-11.609 c -0.956,0 -2.073,0.067 -3.321,0.199 -1.315,0.141 -2.576,0.523 -3.746,1.137 -1.145,0.572 -2.151,1.516 -2.978,2.797 -0.831,1.29 -1.252,3.069 -1.252,5.289 v 7.109 c 0,2.127 0.871,3.807 2.59,4.992 1.584,1.074 3.934,1.617 6.988,1.617 2.774,0 4.962,-0.665 6.502,-1.976 1.388,-1.157 2.213,-2.66 2.445,-4.46 l 0.109,-0.846 h -0.853 -5.234 -0.483 l -0.2,0.44 c -0.177,0.39 -0.438,0.637 -0.824,0.776 -0.487,0.178 -1.059,0.268 -1.696,0.268 -0.603,0 -1.282,-0.108 -2.018,-0.322 -0.558,-0.162 -0.67,-0.427 -0.67,-0.803 0,-0.577 1.017,-1.046 2.789,-1.288 0.487,-0.055 0.92,-0.122 1.306,-0.205 0.312,-0.066 0.574,-0.101 0.78,-0.101 h 0.059 l 0.059,-0.009 c 2.09,-0.33 3.843,-1.007 5.21,-2.012 1.473,-1.082 2.22,-2.862 2.22,-5.292 0,-2.587 -0.814,-4.487 -2.42,-5.647 -1.531,-1.103 -3.335,-1.663 -5.362,-1.663 l 0,0 z m -4.719,10.481 v -0.825 c 0,-1.263 0.337,-2.214 1.03,-2.907 0.693,-0.693 1.645,-1.03 2.907,-1.03 0.692,0 1.208,0.146 1.533,0.436 0.293,0.295 0.452,0.735 0.452,1.314 0,0.408 -0.125,0.815 -0.383,1.241 -0.242,0.218 -0.718,0.513 -1.646,0.771 l -1.755,0.381 c -0.828,0.197 -1.535,0.402 -2.138,0.619 l 0,0 z"
         id="path443"
         style="fill:#ffffff" />
    </g>
    <g
       transform="matrix(2.8985755,0,0,2.8985755,-590.79137,306.31437)"
       id="g445">
      <g
         id="g447">
        <path
           d="m 217.787,222.787 c -3.07,0 -5.505,-1.017 -7.237,-3.021 -1.719,-1.932 -2.592,-4.723 -2.592,-8.292 0,-3.411 0.846,-6.122 2.513,-8.058 1.733,-2.004 4.168,-3.021 7.237,-3.021 3.22,0 5.757,0.987 7.542,2.935 0.979,1.195 1.686,2.582 2.116,4.138 l 0.131,0.475 h -6.192 l -0.104,-0.206 c -0.243,-0.484 -0.483,-0.846 -0.712,-1.076 -0.619,-0.665 -1.475,-0.983 -2.625,-0.983 -1.052,0 -1.885,0.322 -2.547,0.984 -0.855,0.951 -1.296,2.602 -1.296,4.891 0,2.286 0.438,3.907 1.303,4.82 0.625,0.77 1.526,1.133 2.775,1.133 0.815,0 1.514,-0.167 2.077,-0.496 0.171,-0.065 0.264,-0.125 0.354,-0.215 l 0.43,-0.43 c 0.078,-0.131 0.299,-0.354 0.65,-0.647 0.381,-0.317 0.935,-0.478 1.646,-0.478 h 4.393 l -0.124,0.47 c -0.595,2.266 -1.748,4.019 -3.427,5.211 -1.667,1.237 -3.792,1.866 -6.311,1.866 z"
           id="path449"
           style="fill:#004f9f" />
        <path
           d="m 217.709,200.771 c 3.125,0 5.547,0.938 7.266,2.812 0.938,1.146 1.613,2.475 2.031,3.984 h -5.469 c -0.262,-0.521 -0.521,-0.911 -0.781,-1.172 -0.678,-0.729 -1.641,-1.094 -2.891,-1.094 -1.146,0 -2.084,0.365 -2.812,1.094 -0.938,1.042 -1.406,2.761 -1.406,5.156 0,2.396 0.469,4.089 1.406,5.078 0.676,0.834 1.691,1.25 3.047,1.25 0.885,0 1.641,-0.182 2.266,-0.547 0.156,-0.052 0.299,-0.143 0.43,-0.273 0.129,-0.13 0.273,-0.273 0.43,-0.43 0.104,-0.156 0.312,-0.364 0.625,-0.625 0.312,-0.26 0.781,-0.391 1.406,-0.391 h 3.906 c -0.574,2.188 -1.668,3.854 -3.281,5 -1.615,1.198 -3.646,1.797 -6.094,1.797 -2.969,0 -5.287,-0.963 -6.953,-2.891 -1.668,-1.875 -2.5,-4.557 -2.5,-8.047 0,-3.333 0.807,-5.938 2.422,-7.812 1.665,-1.925 3.983,-2.889 6.952,-2.889 m 0,-0.75 c -3.183,0 -5.713,1.06 -7.521,3.15 -1.729,2.006 -2.605,4.799 -2.605,8.303 0,3.664 0.905,6.539 2.69,8.545 1.8,2.083 4.33,3.143 7.514,3.143 2.601,0 4.801,-0.654 6.541,-1.944 1.74,-1.235 2.942,-3.06 3.56,-5.412 l 0.247,-0.94 h -0.972 -3.906 c -0.801,0 -1.436,0.189 -1.886,0.563 -0.34,0.284 -0.572,0.514 -0.721,0.717 l -0.111,0.11 -0.275,0.276 c -0.045,0.045 -0.09,0.075 -0.133,0.09 l -0.075,0.024 -0.068,0.04 c -0.504,0.295 -1.14,0.444 -1.887,0.444 -1.128,0 -1.934,-0.318 -2.464,-0.973 l -0.018,-0.022 -0.02,-0.021 c -0.797,-0.841 -1.201,-2.376 -1.201,-4.562 0,-2.193 0.408,-3.76 1.214,-4.654 0.561,-0.56 1.308,-0.846 2.255,-0.846 1.041,0 1.807,0.279 2.341,0.854 0.219,0.221 0.435,0.55 0.661,0.998 l 0.208,0.413 h 0.462 5.469 0.986 l -0.263,-0.95 c -0.444,-1.606 -1.176,-3.039 -2.173,-4.259 -1.889,-2.058 -4.52,-3.087 -7.849,-3.087 l 0,0 z"
           id="path451"
           style="fill:#ffffff" />
      </g>
      <g
         id="g453">
        <path
           d="m 237.15,222.78 c -0.812,0 -1.637,-0.093 -2.453,-0.275 -1.801,-0.403 -3.264,-1.103 -4.349,-2.08 -1.138,-0.975 -1.965,-2.31 -2.453,-3.961 -0.477,-1.615 -0.718,-3.32 -0.718,-5.067 0,-1.434 0.202,-2.887 0.6,-4.319 0.405,-1.456 1.049,-2.689 1.917,-3.664 1.405,-1.622 3.245,-2.598 5.465,-2.896 0.684,-0.092 1.357,-0.138 2.001,-0.138 1.413,0 2.744,0.224 3.958,0.665 2.07,0.817 3.609,2.246 4.584,4.251 0.905,1.758 1.366,3.84 1.366,6.18 0,1.692 -0.189,3.175 -0.563,4.405 -0.375,1.23 -0.865,2.29 -1.456,3.15 -1.306,1.797 -2.985,2.924 -4.996,3.357 -0.945,0.258 -1.928,0.392 -2.903,0.392 z m 0.028,-17.073 c -0.332,0 -0.669,0.051 -1.001,0.15 -0.719,0.216 -1.244,0.486 -1.561,0.804 -1.009,1.106 -1.476,2.816 -1.375,5.07 0.1,2.274 0.517,3.868 1.242,4.737 0.279,0.371 0.773,0.684 1.481,0.942 0.386,0.143 0.78,0.214 1.17,0.214 0.321,0 0.65,-0.048 0.979,-0.144 0.716,-0.208 1.369,-0.748 1.941,-1.605 0.582,-0.872 0.902,-2.33 0.953,-4.333 0,-1.782 -0.283,-3.134 -0.84,-4.008 -0.549,-0.858 -1.179,-1.411 -1.873,-1.643 -0.372,-0.121 -0.747,-0.184 -1.116,-0.184 z"
           id="path455"
           style="fill:#004f9f" />
        <path
           d="m 237.16,200.754 c 1.375,0 2.651,0.214 3.83,0.643 1.979,0.781 3.438,2.136 4.375,4.062 0.885,1.719 1.328,3.725 1.328,6.016 0,1.667 -0.184,3.1 -0.547,4.297 -0.365,1.198 -0.834,2.214 -1.406,3.047 -1.25,1.719 -2.84,2.787 -4.766,3.203 -0.938,0.256 -1.879,0.384 -2.824,0.384 -0.788,0 -1.578,-0.089 -2.371,-0.267 -1.746,-0.391 -3.139,-1.055 -4.18,-1.992 -1.094,-0.938 -1.875,-2.2 -2.344,-3.789 -0.469,-1.588 -0.703,-3.242 -0.703,-4.961 0,-1.406 0.195,-2.812 0.586,-4.219 0.391,-1.407 1.002,-2.578 1.836,-3.516 1.354,-1.562 3.098,-2.486 5.234,-2.773 0.672,-0.09 1.322,-0.135 1.952,-0.135 M 237.133,218 c 0.358,0 0.719,-0.053 1.083,-0.158 0.807,-0.234 1.523,-0.82 2.148,-1.758 0.625,-0.938 0.963,-2.447 1.016,-4.531 0,-1.875 -0.301,-3.281 -0.898,-4.219 -0.6,-0.938 -1.289,-1.536 -2.07,-1.797 -0.412,-0.137 -0.823,-0.205 -1.234,-0.205 -0.37,0 -0.74,0.055 -1.109,0.166 -0.781,0.234 -1.355,0.534 -1.719,0.898 -1.094,1.198 -1.59,2.982 -1.484,5.352 0.104,2.37 0.547,4.023 1.328,4.961 0.312,0.417 0.859,0.769 1.641,1.055 0.428,0.158 0.861,0.236 1.298,0.236 m 0.028,-17.996 0,0 c -0.661,0 -1.351,0.048 -2.051,0.142 -2.313,0.311 -4.232,1.329 -5.702,3.025 -0.899,1.011 -1.572,2.294 -1.992,3.806 -0.407,1.466 -0.613,2.952 -0.613,4.42 0,1.783 0.247,3.523 0.734,5.173 0.508,1.723 1.375,3.117 2.575,4.146 1.12,1.009 2.64,1.737 4.504,2.155 0.842,0.188 1.695,0.284 2.535,0.284 1.007,0 2.024,-0.138 3.021,-0.41 2.064,-0.445 3.819,-1.621 5.175,-3.485 0.625,-0.909 1.131,-2.004 1.517,-3.27 0.385,-1.268 0.58,-2.786 0.58,-4.516 0,-2.4 -0.475,-4.54 -1.411,-6.359 -1.01,-2.076 -2.617,-3.567 -4.767,-4.416 -1.275,-0.464 -2.649,-0.695 -4.105,-0.695 l 0,0 z m -0.028,17.246 c -0.347,0 -0.697,-0.063 -1.041,-0.19 -0.631,-0.23 -1.08,-0.508 -1.299,-0.801 -0.695,-0.835 -1.083,-2.354 -1.179,-4.544 -0.096,-2.151 0.338,-3.771 1.289,-4.812 0.165,-0.164 0.561,-0.439 1.38,-0.686 0.298,-0.09 0.599,-0.135 0.894,-0.135 0.329,0 0.665,0.056 0.998,0.167 0.609,0.203 1.173,0.704 1.675,1.489 0.518,0.812 0.78,2.096 0.78,3.814 -0.049,1.912 -0.348,3.303 -0.89,4.115 -0.521,0.781 -1.104,1.271 -1.734,1.453 -0.293,0.087 -0.587,0.13 -0.873,0.13 l 0,0 z"
           id="path457"
           style="fill:#ffffff" />
      </g>
    </g>
    <g
       transform="matrix(2.8985755,0,0,2.8985755,-590.79137,306.31437)"
       id="g459">
      <g
         id="g461">
        <path
           d="m 256.967,222.787 c -1.389,0 -2.771,-0.23 -4.105,-0.684 -1.366,-0.464 -2.476,-1.229 -3.299,-2.271 -1.557,-1.984 -2.346,-4.718 -2.346,-8.123 0,-3.352 0.788,-6.083 2.343,-8.118 1.63,-2.12 3.754,-3.194 6.313,-3.194 1.356,0 2.571,0.277 3.612,0.824 0.755,0.453 1.406,0.995 1.951,1.622 v -8.149 h 3.031 c 0.832,0 1.554,0.315 2.146,0.937 0.587,0.618 0.885,1.323 0.885,2.095 v 15.234 c 0,3.82 -1.138,6.451 -3.383,7.82 -2.185,1.331 -4.59,2.007 -7.148,2.007 z m 0.312,-16.953 c -1.237,0 -2.185,0.485 -2.898,1.483 -0.733,0.978 -1.102,2.374 -1.102,4.157 0,1.994 0.371,3.523 1.102,4.548 0.713,0.998 1.712,1.483 3.054,1.483 1.29,0 2.263,-0.485 2.976,-1.483 0.677,-1.017 1.024,-2.551 1.024,-4.548 0,-1.786 -0.371,-3.211 -1.102,-4.235 -0.753,-0.94 -1.757,-1.405 -3.054,-1.405 z"
           id="path463"
           style="fill:#004f9f" />
      </g>
      <g
         id="g465">
        <path
           d="m 264.467,195.068 c 0.729,0 1.354,0.273 1.875,0.82 0.52,0.547 0.781,1.159 0.781,1.836 v 15.234 c 0,3.698 -1.068,6.198 -3.203,7.5 -2.137,1.303 -4.453,1.953 -6.953,1.953 -1.355,0 -2.684,-0.222 -3.984,-0.664 -1.303,-0.442 -2.344,-1.158 -3.125,-2.148 -1.512,-1.927 -2.266,-4.557 -2.266,-7.891 0,-3.281 0.754,-5.911 2.266,-7.891 1.562,-2.031 3.566,-3.047 6.016,-3.047 1.301,0 2.447,0.261 3.438,0.781 1.041,0.625 1.875,1.433 2.5,2.422 v -8.906 h 2.655 m -7.031,22.814 c 1.406,0 2.5,-0.547 3.281,-1.641 0.729,-1.094 1.094,-2.682 1.094,-4.766 0,-1.875 -0.391,-3.359 -1.172,-4.453 -0.834,-1.041 -1.953,-1.562 -3.359,-1.562 -1.355,0 -2.422,0.547 -3.203,1.641 -0.781,1.042 -1.172,2.5 -1.172,4.375 0,2.084 0.391,3.672 1.172,4.766 0.781,1.094 1.9,1.64 3.359,1.64 m 7.031,-23.563 h -2.656 -0.75 v 0.75 6.854 c -0.413,-0.376 -0.868,-0.715 -1.364,-1.012 -1.132,-0.597 -2.406,-0.889 -3.824,-0.889 -2.682,0 -4.905,1.124 -6.61,3.34 -1.607,2.104 -2.421,4.912 -2.421,8.348 0,3.492 0.816,6.303 2.426,8.354 0.87,1.103 2.038,1.908 3.474,2.396 1.373,0.467 2.795,0.704 4.226,0.704 2.628,0 5.099,-0.694 7.344,-2.062 2.364,-1.441 3.562,-4.181 3.562,-8.141 v -15.234 c 0,-0.871 -0.332,-1.663 -0.987,-2.353 -0.669,-0.7 -1.482,-1.055 -2.42,-1.055 l 0,0 z m -7.031,22.813 c -1.212,0 -2.111,-0.434 -2.749,-1.326 -0.685,-0.959 -1.032,-2.416 -1.032,-4.33 0,-1.7 0.344,-3.021 1.022,-3.925 0.648,-0.907 1.496,-1.341 2.603,-1.341 1.176,0 2.083,0.419 2.774,1.281 0.66,0.926 1.007,2.277 1.007,3.984 0,1.922 -0.326,3.386 -0.968,4.35 -0.624,0.873 -1.498,1.307 -2.657,1.307 l 0,0 z"
           id="path467"
           style="fill:#ffffff" />
      </g>
    </g>
    <g
       transform="matrix(2.8985755,0,0,2.8985755,-590.79137,306.31437)"
       id="g469">
      <path
         d="m 217.787,245.261 c -3.07,0 -5.505,-1.017 -7.237,-3.021 -1.719,-1.932 -2.592,-4.723 -2.592,-8.292 0,-3.411 0.846,-6.122 2.513,-8.058 1.733,-2.004 4.168,-3.021 7.237,-3.021 3.22,0 5.757,0.987 7.542,2.935 0.979,1.195 1.686,2.582 2.116,4.138 l 0.131,0.475 h -6.192 l -0.104,-0.206 c -0.243,-0.484 -0.483,-0.846 -0.712,-1.076 -0.619,-0.665 -1.475,-0.983 -2.625,-0.983 -1.052,0 -1.885,0.322 -2.547,0.984 -0.855,0.951 -1.296,2.602 -1.296,4.891 0,2.286 0.438,3.907 1.303,4.82 0.625,0.77 1.526,1.133 2.775,1.133 0.815,0 1.514,-0.167 2.077,-0.496 0.171,-0.065 0.264,-0.125 0.354,-0.215 l 0.43,-0.43 c 0.078,-0.131 0.299,-0.354 0.65,-0.647 0.381,-0.317 0.935,-0.478 1.646,-0.478 h 4.393 l -0.124,0.47 c -0.595,2.266 -1.748,4.019 -3.427,5.211 -1.667,1.237 -3.792,1.866 -6.311,1.866 z"
         id="path471" />
      <path
         d="m 217.709,223.245 c 3.125,0 5.547,0.938 7.266,2.812 0.938,1.146 1.613,2.475 2.031,3.984 h -5.469 c -0.262,-0.521 -0.521,-0.911 -0.781,-1.172 -0.678,-0.729 -1.641,-1.094 -2.891,-1.094 -1.146,0 -2.084,0.365 -2.812,1.094 -0.938,1.042 -1.406,2.761 -1.406,5.156 0,2.396 0.469,4.089 1.406,5.078 0.676,0.834 1.691,1.25 3.047,1.25 0.885,0 1.641,-0.182 2.266,-0.547 0.156,-0.052 0.299,-0.143 0.43,-0.273 0.129,-0.13 0.273,-0.273 0.43,-0.43 0.104,-0.156 0.312,-0.364 0.625,-0.625 0.312,-0.26 0.781,-0.391 1.406,-0.391 h 3.906 c -0.574,2.188 -1.668,3.854 -3.281,5 -1.615,1.198 -3.646,1.797 -6.094,1.797 -2.969,0 -5.287,-0.963 -6.953,-2.891 -1.668,-1.875 -2.5,-4.557 -2.5,-8.047 0,-3.333 0.807,-5.938 2.422,-7.812 1.665,-1.925 3.983,-2.889 6.952,-2.889 m 0,-0.75 c -3.183,0 -5.713,1.06 -7.521,3.15 -1.729,2.006 -2.605,4.799 -2.605,8.303 0,3.664 0.905,6.539 2.69,8.545 1.8,2.083 4.33,3.143 7.514,3.143 2.601,0 4.801,-0.654 6.541,-1.944 1.74,-1.235 2.942,-3.06 3.56,-5.412 l 0.247,-0.94 h -0.972 -3.906 c -0.801,0 -1.436,0.189 -1.886,0.563 -0.34,0.284 -0.572,0.514 -0.721,0.717 l -0.111,0.11 -0.275,0.276 c -0.045,0.045 -0.09,0.075 -0.133,0.09 l -0.075,0.024 -0.068,0.04 c -0.504,0.295 -1.14,0.444 -1.887,0.444 -1.128,0 -1.934,-0.318 -2.464,-0.972 l -0.018,-0.023 -0.02,-0.021 c -0.797,-0.841 -1.201,-2.376 -1.201,-4.562 0,-2.193 0.408,-3.76 1.214,-4.654 0.561,-0.56 1.308,-0.846 2.255,-0.846 1.041,0 1.807,0.279 2.341,0.854 0.219,0.221 0.435,0.55 0.661,0.998 l 0.208,0.413 h 0.462 5.469 0.986 l -0.263,-0.95 c -0.444,-1.606 -1.176,-3.039 -2.173,-4.259 -1.889,-2.059 -4.52,-3.087 -7.849,-3.087 l 0,0 z"
         id="path473"
         style="fill:#ffffff" />
    </g>
    <g
       transform="matrix(2.8985755,0,0,2.8985755,-590.79137,306.31437)"
       id="g475">
      <path
         d="m 237.15,245.254 c -0.812,0 -1.637,-0.093 -2.453,-0.275 -1.801,-0.403 -3.264,-1.103 -4.349,-2.08 -1.138,-0.975 -1.965,-2.31 -2.453,-3.961 -0.477,-1.615 -0.718,-3.32 -0.718,-5.067 0,-1.434 0.202,-2.887 0.6,-4.319 0.405,-1.456 1.049,-2.689 1.917,-3.664 1.405,-1.622 3.245,-2.598 5.465,-2.896 0.684,-0.092 1.357,-0.138 2.001,-0.138 1.413,0 2.744,0.224 3.958,0.665 2.07,0.817 3.609,2.246 4.584,4.251 0.905,1.758 1.366,3.84 1.366,6.18 0,1.692 -0.189,3.175 -0.563,4.405 -0.375,1.23 -0.865,2.29 -1.456,3.15 -1.306,1.797 -2.985,2.924 -4.996,3.357 -0.945,0.258 -1.928,0.392 -2.903,0.392 z m 0.028,-17.073 c -0.332,0 -0.669,0.051 -1.001,0.15 -0.719,0.216 -1.244,0.486 -1.561,0.804 -1.009,1.106 -1.476,2.816 -1.375,5.07 0.1,2.274 0.517,3.868 1.242,4.737 0.279,0.371 0.773,0.684 1.481,0.942 0.386,0.143 0.78,0.214 1.17,0.214 0.321,0 0.65,-0.048 0.979,-0.144 0.716,-0.208 1.369,-0.748 1.941,-1.605 0.582,-0.872 0.902,-2.33 0.953,-4.333 0,-1.782 -0.283,-3.134 -0.84,-4.008 -0.549,-0.858 -1.179,-1.411 -1.873,-1.643 -0.372,-0.122 -0.747,-0.184 -1.116,-0.184 z"
         id="path477" />
      <path
         d="m 237.16,223.228 c 1.375,0 2.651,0.214 3.83,0.643 1.979,0.781 3.438,2.136 4.375,4.062 0.885,1.719 1.328,3.725 1.328,6.016 0,1.667 -0.184,3.1 -0.547,4.297 -0.365,1.198 -0.834,2.214 -1.406,3.047 -1.25,1.719 -2.84,2.787 -4.766,3.203 -0.938,0.256 -1.879,0.384 -2.824,0.384 -0.788,0 -1.578,-0.089 -2.371,-0.267 -1.746,-0.391 -3.139,-1.055 -4.18,-1.992 -1.094,-0.938 -1.875,-2.2 -2.344,-3.789 -0.469,-1.588 -0.703,-3.242 -0.703,-4.961 0,-1.406 0.195,-2.812 0.586,-4.219 0.391,-1.407 1.002,-2.578 1.836,-3.516 1.354,-1.562 3.098,-2.486 5.234,-2.773 0.672,-0.091 1.322,-0.135 1.952,-0.135 m -0.027,17.246 c 0.358,0 0.719,-0.053 1.083,-0.158 0.807,-0.234 1.523,-0.82 2.148,-1.758 0.625,-0.938 0.963,-2.447 1.016,-4.531 0,-1.875 -0.301,-3.281 -0.898,-4.219 -0.6,-0.938 -1.289,-1.536 -2.07,-1.797 -0.412,-0.137 -0.823,-0.205 -1.234,-0.205 -0.37,0 -0.74,0.055 -1.109,0.166 -0.781,0.234 -1.355,0.534 -1.719,0.898 -1.094,1.198 -1.59,2.982 -1.484,5.352 0.104,2.37 0.547,4.023 1.328,4.961 0.312,0.417 0.859,0.769 1.641,1.055 0.428,0.158 0.861,0.236 1.298,0.236 m 0.028,-17.996 0,0 c -0.661,0 -1.351,0.048 -2.051,0.142 -2.313,0.311 -4.232,1.329 -5.702,3.025 -0.899,1.011 -1.572,2.294 -1.992,3.806 -0.407,1.466 -0.613,2.952 -0.613,4.42 0,1.783 0.247,3.523 0.734,5.173 0.508,1.723 1.375,3.117 2.575,4.146 1.12,1.009 2.64,1.737 4.504,2.154 0.842,0.189 1.695,0.285 2.535,0.285 1.007,0 2.024,-0.139 3.021,-0.41 2.064,-0.445 3.819,-1.621 5.175,-3.485 0.625,-0.909 1.131,-2.004 1.517,-3.27 0.385,-1.268 0.58,-2.786 0.58,-4.516 0,-2.4 -0.475,-4.54 -1.411,-6.358 -1.01,-2.077 -2.617,-3.568 -4.767,-4.417 -1.275,-0.464 -2.649,-0.695 -4.105,-0.695 l 0,0 z m -0.028,17.246 c -0.347,0 -0.697,-0.063 -1.041,-0.19 -0.631,-0.23 -1.08,-0.508 -1.299,-0.801 -0.695,-0.835 -1.083,-2.354 -1.179,-4.543 -0.096,-2.152 0.338,-3.771 1.289,-4.813 0.165,-0.164 0.561,-0.439 1.38,-0.686 0.298,-0.09 0.599,-0.135 0.894,-0.135 0.329,0 0.665,0.056 0.998,0.167 0.609,0.203 1.173,0.704 1.675,1.489 0.518,0.812 0.78,2.096 0.78,3.814 -0.049,1.912 -0.348,3.303 -0.89,4.115 -0.521,0.782 -1.104,1.271 -1.734,1.454 -0.293,0.086 -0.587,0.129 -0.873,0.129 l 0,0 z"
         id="path479"
         style="fill:#ffffff" />
    </g>
    <g
       transform="matrix(2.8985755,0,0,2.8985755,-590.79137,306.31437)"
       id="g481">
      <path
         d="m 257.709,245.261 c -2.56,0 -4.965,-0.676 -7.148,-2.008 -2.245,-1.367 -3.383,-3.999 -3.383,-7.82 v -19.194 h 3.031 c 0.828,0 1.548,0.3 2.14,0.891 0.591,0.594 0.891,1.314 0.891,2.141 v 6.007 c 0.526,-0.611 1.175,-1.139 1.939,-1.575 0.994,-0.553 2.212,-0.831 3.624,-0.831 2.559,0 4.683,1.074 6.313,3.193 1.606,2.089 2.421,4.82 2.421,8.119 0,3.299 -0.815,6.03 -2.421,8.119 -0.826,1.047 -1.95,1.812 -3.343,2.275 -1.361,0.453 -2.729,0.683 -4.064,0.683 z m -0.313,-16.953 c -1.345,0 -2.346,0.462 -3.06,1.412 -0.726,1.018 -1.097,2.442 -1.097,4.229 0,2.098 0.343,3.626 1.021,4.543 0.716,1.003 1.69,1.488 2.979,1.488 1.342,0 2.341,-0.485 3.054,-1.483 0.731,-1.024 1.102,-2.554 1.102,-4.548 0,-1.783 -0.369,-3.18 -1.097,-4.15 -0.716,-1.006 -1.665,-1.491 -2.902,-1.491 z"
         id="path483" />
      <path
         d="m 250.209,216.613 c 0.729,0 1.354,0.261 1.875,0.781 0.52,0.521 0.781,1.146 0.781,1.875 v 7.179 c 0.572,-0.989 1.406,-1.797 2.5,-2.422 0.938,-0.521 2.082,-0.781 3.438,-0.781 2.447,0 4.453,1.016 6.016,3.047 1.563,2.031 2.344,4.662 2.344,7.891 0,3.229 -0.781,5.859 -2.344,7.891 -0.781,0.99 -1.836,1.706 -3.164,2.148 -1.328,0.442 -2.645,0.664 -3.945,0.664 -2.5,0 -4.818,-0.65 -6.953,-1.953 -2.137,-1.302 -3.203,-3.802 -3.203,-7.5 v -18.819 h 2.655 m 7.031,23.74 c 1.457,0 2.578,-0.547 3.359,-1.641 0.781,-1.094 1.172,-2.682 1.172,-4.766 0,-1.875 -0.391,-3.333 -1.172,-4.375 -0.781,-1.094 -1.85,-1.641 -3.203,-1.641 -1.459,0 -2.578,0.521 -3.359,1.562 -0.781,1.094 -1.172,2.578 -1.172,4.453 0,2.188 0.363,3.776 1.094,4.766 0.781,1.096 1.875,1.642 3.281,1.642 m -7.031,-24.491 h -2.656 -0.75 v 0.75 18.819 c 0,3.961 1.199,6.7 3.563,8.141 2.243,1.368 4.713,2.062 7.343,2.062 1.376,0 2.783,-0.236 4.182,-0.702 1.464,-0.488 2.646,-1.294 3.516,-2.396 1.664,-2.163 2.505,-4.972 2.505,-8.355 0,-3.383 -0.841,-6.192 -2.5,-8.348 -1.705,-2.216 -3.928,-3.34 -6.61,-3.34 -1.476,0 -2.755,0.295 -3.802,0.876 -0.512,0.292 -0.975,0.623 -1.386,0.99 v -5.092 c 0,-0.93 -0.336,-1.738 -1,-2.404 -0.665,-0.664 -1.474,-1.001 -2.405,-1.001 l 0,0 z m 7.031,23.741 c -1.16,0 -2.033,-0.434 -2.671,-1.326 -0.635,-0.861 -0.954,-2.314 -0.954,-4.33 0,-1.707 0.347,-3.059 1.032,-4.018 0.627,-0.835 1.53,-1.248 2.749,-1.248 1.107,0 1.955,0.434 2.593,1.326 0.688,0.919 1.032,2.239 1.032,3.939 0,1.914 -0.347,3.371 -1.032,4.33 -0.637,0.894 -1.536,1.327 -2.749,1.327 l 0,0 z"
         id="path485"
         style="fill:#ffffff" />
    </g>
    <polygon
       points="271.625,234.053 282.625,231.333 282.625,238.541 279.125,242.874 273.125,242.041 270.458,237.104 "
       transform="matrix(2.8985755,0,0,2.8985755,-590.79137,306.31437)"
       id="polygon487"
       style="fill:#004f9f;stroke:#ffffff;stroke-width:0.75;stroke-miterlimit:10" />
    <g
       transform="matrix(2.8985755,0,0,2.8985755,-590.79137,306.31437)"
       id="g489">
      <path
         d="m 274.662,245.261 c -1.947,0 -3.677,-0.536 -5.142,-1.595 -1.502,-1.085 -2.265,-2.883 -2.265,-5.343 0,-2.305 0.695,-3.983 2.067,-4.99 1.318,-0.969 3.016,-1.622 5.046,-1.942 0.291,-0.005 0.58,-0.042 0.917,-0.114 0.374,-0.08 0.804,-0.146 1.287,-0.201 1.412,-0.192 3.104,-0.638 3.104,-1.658 0,-0.615 -0.29,-0.975 -0.94,-1.163 -0.771,-0.224 -1.485,-0.337 -2.122,-0.337 -0.682,0 -1.296,0.098 -1.825,0.29 -0.479,0.174 -0.818,0.493 -1.037,0.975 l -0.1,0.22 h -5.902 l 0.054,-0.423 c 0.218,-1.702 0.999,-3.124 2.319,-4.225 1.467,-1.249 3.573,-1.884 6.256,-1.884 2.979,0 5.257,0.521 6.773,1.549 1.613,1.113 2.43,2.689 2.43,4.686 v 7.109 c 0,2.145 -0.401,3.855 -1.192,5.086 -0.79,1.225 -1.746,2.123 -2.843,2.671 -1.121,0.588 -2.336,0.957 -3.604,1.093 -1.234,0.129 -2.339,0.196 -3.281,0.196 z m 5.094,-10.654 c -0.687,0.283 -1.553,0.552 -2.584,0.799 l -1.805,0.393 c -0.85,0.237 -1.478,0.547 -1.846,0.915 -0.273,0.444 -0.437,0.955 -0.437,1.453 0,0.684 0.194,1.211 0.593,1.609 0.379,0.337 0.979,0.516 1.766,0.516 1.349,0 2.416,-0.384 3.172,-1.141 0.756,-0.757 1.14,-1.824 1.14,-3.172 v -1.372 z"
         id="path491" />
      <path
         d="m 276.381,223.245 c 2.916,0 5.104,0.495 6.562,1.484 1.51,1.042 2.266,2.5 2.266,4.375 v 7.109 c 0,2.084 -0.379,3.711 -1.133,4.883 -0.756,1.172 -1.654,2.019 -2.695,2.539 -1.094,0.573 -2.254,0.924 -3.477,1.055 -1.225,0.13 -2.305,0.195 -3.242,0.195 -1.875,0 -3.516,-0.508 -4.922,-1.523 -1.406,-1.015 -2.109,-2.695 -2.109,-5.039 0,-2.188 0.637,-3.75 1.914,-4.688 1.275,-0.938 2.902,-1.562 4.883,-1.875 0.26,0 0.572,-0.039 0.938,-0.117 0.363,-0.078 0.781,-0.143 1.25,-0.195 2.291,-0.312 3.438,-0.989 3.438,-2.031 0,-0.781 -0.404,-1.289 -1.211,-1.523 -0.809,-0.234 -1.551,-0.352 -2.227,-0.352 -0.73,0 -1.381,0.104 -1.953,0.312 -0.574,0.209 -0.99,0.6 -1.25,1.172 h -5.234 c 0.207,-1.614 0.938,-2.942 2.188,-3.984 1.404,-1.197 3.408,-1.797 6.014,-1.797 m -0.938,17.422 c 1.457,0 2.604,-0.416 3.438,-1.25 0.832,-0.833 1.25,-1.979 1.25,-3.438 v -1.953 c -0.73,0.365 -1.746,0.703 -3.047,1.016 l -1.797,0.391 c -0.938,0.261 -1.615,0.6 -2.031,1.016 -0.365,0.573 -0.547,1.146 -0.547,1.719 0,0.781 0.234,1.406 0.703,1.875 0.469,0.416 1.145,0.624 2.031,0.624 m 0.938,-18.172 c -2.774,0 -4.962,0.665 -6.502,1.976 -1.39,1.158 -2.214,2.661 -2.445,4.46 l -0.108,0.846 h 0.853 5.234 0.483 l 0.2,-0.44 c 0.177,-0.39 0.438,-0.637 0.823,-0.776 0.488,-0.178 1.059,-0.268 1.697,-0.268 0.602,0 1.281,0.108 2.018,0.322 0.558,0.162 0.67,0.427 0.67,0.803 0,0.577 -1.017,1.046 -2.789,1.288 -0.49,0.055 -0.923,0.123 -1.306,0.205 -0.311,0.066 -0.574,0.101 -0.78,0.101 h -0.059 l -0.058,0.009 c -2.09,0.33 -3.843,1.007 -5.21,2.012 -1.473,1.081 -2.22,2.861 -2.22,5.292 0,2.587 0.814,4.487 2.42,5.647 1.53,1.104 3.333,1.665 5.361,1.665 0.956,0 2.073,-0.067 3.321,-0.199 1.316,-0.142 2.576,-0.523 3.746,-1.137 1.145,-0.572 2.151,-1.516 2.978,-2.797 0.831,-1.292 1.252,-3.071 1.252,-5.289 v -7.109 c 0,-2.127 -0.871,-3.807 -2.59,-4.992 -1.585,-1.076 -3.934,-1.619 -6.989,-1.619 l 0,0 z m -2.539,14.431 c 0.242,-0.218 0.718,-0.513 1.646,-0.771 l 1.755,-0.381 c 0.828,-0.198 1.535,-0.403 2.138,-0.62 v 0.825 c 0,1.262 -0.337,2.213 -1.031,2.907 -0.693,0.693 -1.644,1.03 -2.907,1.03 -0.692,0 -1.208,-0.146 -1.533,-0.436 -0.293,-0.295 -0.452,-0.735 -0.452,-1.314 10e-4,-0.407 0.126,-0.814 0.384,-1.24 l 0,0 z"
         id="path493"
         style="fill:#ffffff" />
    </g>
    <g
       transform="matrix(2.8985755,0,0,2.8985755,-590.79137,306.31437)"
       id="g495">
      <path
         d="m 285.85,244.87 v -28.632 h 3.188 c 0.824,0 1.541,0.284 2.133,0.845 0.597,0.568 0.898,1.277 0.898,2.108 v 25.679 h -6.219 z"
         id="path497" />
      <path
         d="m 289.037,216.613 c 0.729,0 1.354,0.248 1.875,0.742 0.52,0.495 0.781,1.107 0.781,1.836 v 25.304 h -5.469 v -27.882 h 2.813 m 0,-0.75 h -2.812 -0.75 v 0.75 27.882 0.75 h 0.75 5.469 0.75 v -0.75 -25.304 c 0,-0.938 -0.341,-1.737 -1.014,-2.379 -0.666,-0.63 -1.47,-0.949 -2.393,-0.949 l 0,0 z"
         id="path499"
         style="fill:#ffffff" />
    </g>
    <g
       transform="matrix(2.8985755,0,0,2.8985755,-590.79137,306.31437)"
       id="g501">
      <path
         d="m 299.716,244.933 c -1.106,0 -2.278,-0.048 -3.482,-0.142 -1.53,-0.119 -3.354,-0.945 -3.354,-4.202 v -24.351 h 3.188 c 0.776,0 1.47,0.3 2.062,0.891 0.591,0.594 0.891,1.314 0.891,2.141 v 4.147 h 3.203 v 1.469 c 0,0.884 -0.302,1.619 -0.898,2.186 -0.591,0.562 -1.309,0.846 -2.133,0.846 h -0.172 v 11.188 c 0,0.472 0.141,0.953 1.188,0.953 h 2.016 v 4.791 l -0.353,0.021 c -0.695,0.04 -1.414,0.062 -2.156,0.062 z"
         id="path503" />
      <path
         d="m 296.068,216.613 c 0.676,0 1.275,0.261 1.797,0.781 0.52,0.521 0.781,1.146 0.781,1.875 v 4.522 h 3.203 v 1.094 c 0,0.781 -0.262,1.42 -0.781,1.914 -0.521,0.495 -1.146,0.742 -1.875,0.742 h -0.547 v 11.562 c 0,0.886 0.52,1.328 1.562,1.328 h 1.641 v 4.062 c -0.688,0.041 -1.399,0.062 -2.133,0.062 -1.1,0 -2.251,-0.047 -3.453,-0.141 -2.006,-0.156 -3.008,-1.432 -3.008,-3.828 V 216.61 h 2.813 m 0,-0.747 h -2.812 -0.75 v 0.75 23.976 c 0,3.544 2.012,4.444 3.7,4.576 1.213,0.095 2.395,0.143 3.511,0.143 0.745,0 1.478,-0.021 2.178,-0.063 l 0.705,-0.043 v -0.706 -4.062 -0.75 h -0.75 -1.641 c -0.812,0 -0.812,-0.281 -0.812,-0.578 v -10.817 c 0.839,-0.044 1.575,-0.36 2.188,-0.943 0.673,-0.641 1.015,-1.468 1.015,-2.458 v -1.094 -0.75 h -0.75 -2.453 v -3.772 c 0,-0.93 -0.336,-1.738 -1,-2.404 -0.667,-0.668 -1.45,-1.005 -2.329,-1.005 l 0,0 z"
         id="path505"
         style="fill:#ffffff" />
    </g>
  </g>
</svg>
